<svg xmlns="http://www.w3.org/2000/svg" width="128" height="128" shape-rendering="geometricPrecision" text-rendering="geometricPrecision" image-rendering="optimizeQuality" fill-rule="evenodd" clip-rule="evenodd"><defs><style>.fil0{fill:#000}</style></defs><g id="Слой_x0020_1"><path class="fil0" d="M423.14 359.03a15.94 15.94 0 0 0-15.92 15.92c0 8.78 7.15 15.92 15.92 15.92 8.78 0 15.92-7.14 15.92-15.92 0-8.78-7.14-15.92-15.92-15.92zM106.94 359.03a15.94 15.94 0 0 0-15.92 15.92c0 8.78 7.15 15.92 15.92 15.92 8.78 0 15.92-7.14 15.92-15.92 0-8.78-7.14-15.92-15.92-15.92z"/><path class="fil0" d="M489.89 255.07l-60.57-26.92-44.33-96.06A34.69 34.69 0 0 0 353.58 112H27.89a25.83 25.83 0 0 0-25.8 25.8v219.58a25.84 25.84 0 0 0 25.8 25.81h27.56a52.23 52.23 0 0 0 51.49 43.91 52.23 52.23 0 0 0 51.5-43.91h213.21a52.23 52.23 0 0 0 51.49 43.91 52.23 52.23 0 0 0 51.5-43.91h9.99a25.84 25.84 0 0 0 25.8-25.81v-70.7a34.62 34.62 0 0 0-20.54-31.61zm-104.44-82.68l24.82 53.79h-75.51v-53.8l50.69.01zM106.94 410.63c-19.67 0-35.68-16-35.68-35.68a35.73 35.73 0 0 1 35.68-35.68 35.73 35.73 0 0 1 35.69 35.68 35.72 35.72 0 0 1-35.69 35.68zm316.2 0c-19.67 0-35.68-16-35.68-35.68a35.73 35.73 0 0 1 35.68-35.68 35.73 35.73 0 0 1 35.69 35.68 35.72 35.72 0 0 1-35.69 35.68zm70.82-79.05h-9.33a8.24 8.24 0 0 0 0 16.47h9.33v9.33a9.35 9.35 0 0 1-9.33 9.34h-9.99a52.23 52.23 0 0 0-51.5-43.92 52.23 52.23 0 0 0-51.49 43.92H158.44a52.23 52.23 0 0 0-51.5-43.92 52.23 52.23 0 0 0-51.49 43.92H27.89a9.35 9.35 0 0 1-9.33-9.34v-9.33h26.9a8.22 8.22 0 1 0 0-16.47h-26.9V137.8a9.34 9.34 0 0 1 9.33-9.33h325.69c7.05 0 13.5 4.13 16.45 10.52l7.81 16.93h-77.66a17.03 17.03 0 0 0-17.02 17.01v35.14a34.62 34.62 0 0 0 34.58 34.58H421.4l51.13 22.73-1.29.79a25.92 25.92 0 0 0-12.41 22.05v16.47a8.23 8.23 0 0 0 8.23 8.23h26.9v18.66zM318.29 172.39v53.79h-.55a18.13 18.13 0 0 1-18.11-18.11v-35.14c0-.3.24-.55.55-.55l18.11.01zm175.67 124.06H475.3v-8.23a9.41 9.41 0 0 1 4.48-7.98l9.46-5.74a18.07 18.07 0 0 1 4.72 12.17v9.78z"/><path class="fil0" d="M361.66 331.58H168.43a8.24 8.24 0 0 0 0 16.47h193.23a8.23 8.23 0 1 0 0-16.47z"/><path d="M123.26 182.69l-9.15-21.92-11.36 4.75 9.19 22.03c1.01 2.41 2.25 4.03 3.73 4.86 1.46.82 3.15.84 5.04.05 1.87-.78 3.03-1.98 3.47-3.6.43-1.63.12-3.68-.92-6.17zm-17.38 10.24l-10.2-24.46-15.89 6.62L90 199.56c1.1 2.65 2.65 4.41 4.68 5.29 1.99.86 4.27.78 6.8-.28 2.5-1.04 4.12-2.58 4.91-4.61.76-2.04.6-4.38-.51-7.03zm-36.19-22.47l48.24-20.13 12.38 29.69c2.05 4.91 2.6 9.06 1.63 12.43-.96 3.38-3.41 5.87-7.31 7.5a12.21 12.21 0 0 1-5.73 1.01 10.4 10.4 0 0 1-5.16-1.91 17.56 17.56 0 0 1-2.99 8.37 14.45 14.45 0 0 1-6.47 5.1c-4.5 1.88-8.67 1.85-12.51-.06-3.85-1.94-6.87-5.55-9.08-10.85l-13-31.15zm61.81 51.35l20.41 18.95c2.07 1.92 4.06 2.95 5.99 3.05 1.93.11 3.68-.67 5.25-2.35 1.55-1.68 2.2-3.48 1.92-5.37-.26-1.9-1.43-3.81-3.5-5.73l-20.41-18.95-9.66 10.4zm-5.22 5.62l-15.56 16.75-5.98-5.56 35.56-38.29 26.4 24.5c3.92 3.65 6.11 7.45 6.58 11.41.48 3.95-.86 7.6-3.98 10.96a14.08 14.08 0 0 1-9.2 4.62c-3.61.37-7.03-.52-10.27-2.7l-4.95 26.78-6.52-6.06 4.66-26.87-16.74-15.54zm52 43.63l18.86 7.99-1.54-22.46-17.32 14.47zm-25.37 11.22l44.97-37.85 4.75 2.01 4.31 58.72-8.08-3.42-1.08-14.92-25.47-10.78-11.42 9.62-7.98-3.38zm71.44 26.91l7.74-51.82 4.25.64 27.46 41.33 5.45-36.41 7.95 1.19-7.75 51.82-4.24-.64-27.49-41.2-5.42 36.28-7.95-1.19zm89.63-45.13c8.53-.77 15.61 1.04 21.29 5.43 5.65 4.4 8.83 10.48 9.54 18.26.72 7.86-1.28 14.37-5.96 19.55-4.68 5.16-11.39 8.15-20.13 8.94l-23.1 2.1-4.75-52.18 23.11-2.1zm.8 7.5l-15.09 1.37 3.38 37.16 15.1-1.37c6.19-.56 10.92-2.67 14.16-6.31 3.24-3.64 4.61-8.33 4.09-14.02-.5-5.51-2.75-9.82-6.73-12.95-3.99-3.13-8.94-4.42-14.91-3.88z" fill="#2b2a29" fill-rule="nonzero"/></g></svg>