<?xml version="1.0" encoding="UTF-8"?>
<!DOCTYPE svg PUBLIC "-//W3C//DTD SVG 1.1//EN" "http://www.w3.org/Graphics/SVG/1.1/DTD/svg11.dtd">
<!-- Creator: CorelDRAW 2017 -->
<svg xmlns="http://www.w3.org/2000/svg" xml:space="preserve" width="8.8052mm" height="8.8052mm" version="1.1" style="shape-rendering:geometricPrecision; text-rendering:geometricPrecision; image-rendering:optimizeQuality; fill-rule:evenodd; clip-rule:evenodd"
viewBox="0 0 880.52 880.52"
 xmlns:xlink="http://www.w3.org/1999/xlink">
 <defs>
  <style type="text/css">
   <![CDATA[
    .str0 {stroke:#2B2A29;stroke-width:7.62;stroke-miterlimit:22.9256}
    .fil0 {fill:#2B2A29}
   ]]>
  </style>
 </defs>
 <g id="Слой_x0020_1">
  <metadata id="CorelCorpID_0Corel-Layer"/>
  <path class="fil0 str0" d="M476.89 484.65l219.62 0c15.03,0 27.96,6.73 36.58,19.04 8.62,12.32 10.53,26.77 5.39,40.9l-78.73 216.29c-6.54,17.98 -22.83,29.38 -41.96,29.38l-252.13 0 32.51 -89.32 188.34 0 46.22 -126.97 -188.35 0 32.51 -89.32zm99.21 -272.56l32.51 -89.33 219.61 0c15.04,0 27.97,6.73 36.59,19.05 8.62,12.31 10.52,26.76 5.38,40.89l-78.61 215.98c-6.54,17.98 -22.83,29.39 -41.97,29.39l-252.12 0 32.51 -89.33 188.34 0 46.1 -126.65 -188.34 0zm-312.3 407.54l40.79 112.06c8.41,23.12 -3.58,48.83 -26.69,57.25 -23.12,8.41 -48.83,-3.58 -57.25,-26.69l-210.44 -578.18c-8.41,-23.12 3.58,-48.83 26.7,-57.24 23.11,-8.42 48.83,3.57 57.24,26.69l19.36 53.19 150.29 412.92zm82.42 34.53l168.88 -470.28c5.07,-14.13 3.11,-28.54 -5.53,-40.81 -8.65,-12.27 -21.57,-18.96 -36.58,-18.94l-319.48 0.55 32.47 89.21 223.57 -0.34 -48.62 135.46 -126.74 -2.66 32.83 90.21 62.06 1.18 -30.6 85.26 47.74 131.16z"/>
 </g>
</svg>
