<?xml version="1.0" encoding="UTF-8"?>
<!DOCTYPE svg PUBLIC "-//W3C//DTD SVG 1.1//EN" "http://www.w3.org/Graphics/SVG/1.1/DTD/svg11.dtd">
<!-- Creator: CorelDRAW 2017 -->
<svg xmlns="http://www.w3.org/2000/svg" xml:space="preserve" width="512px" height="512px" version="1.1" style="shape-rendering:geometricPrecision; text-rendering:geometricPrecision; image-rendering:optimizeQuality; fill-rule:evenodd; clip-rule:evenodd"
viewBox="0 0 512 512"
 xmlns:xlink="http://www.w3.org/1999/xlink">
 <defs>
  <style type="text/css">
   <![CDATA[
    .fil0 {fill:black}
    .fil1 {fill:#2B2A29;fill-rule:nonzero}
   ]]>
  </style>
 </defs>
 <g id="Слой_x0020_1">
  <metadata id="CorelCorpID_0Corel-Layer"/>
  <path class="fil0" d="M423.14 359.03c-8.77,0 -15.92,7.14 -15.92,15.92 0,8.78 7.15,15.92 15.92,15.92 8.78,0 15.92,-7.14 15.92,-15.92 0,-8.78 -7.14,-15.92 -15.92,-15.92z"/>
  <path class="fil0" d="M106.94 359.03c-8.77,0 -15.92,7.14 -15.92,15.92 0,8.78 7.15,15.92 15.92,15.92 8.78,0 15.92,-7.14 15.92,-15.92 0,-8.78 -7.14,-15.92 -15.92,-15.92z"/>
  <path class="fil0" d="M489.89 255.07l-60.57 -26.92 -44.33 -96.06c-5.64,-12.21 -17.96,-20.09 -31.41,-20.09l-325.69 0c-14.22,0 -25.8,11.57 -25.8,25.8l0 219.58c0,14.23 11.58,25.81 25.8,25.81l27.56 0c3.96,24.85 25.54,43.91 51.49,43.91 25.96,0 47.54,-19.06 51.5,-43.91l213.21 0c3.96,24.85 25.54,43.91 51.49,43.91 25.96,0 47.54,-19.06 51.5,-43.91l9.99 0c14.22,0 25.8,-11.58 25.8,-25.81l0 -70.7c0,-13.66 -8.06,-26.06 -20.54,-31.61zm-104.44 -82.68l24.82 53.79 -75.51 0 0 -53.8 50.69 0.01zm-278.51 238.24c-19.67,0 -35.68,-16 -35.68,-35.68 0,-19.67 16.01,-35.68 35.68,-35.68 19.68,0 35.69,16.01 35.69,35.68 0,19.68 -16.01,35.68 -35.69,35.68zm316.2 0c-19.67,0 -35.68,-16 -35.68,-35.68 0,-19.67 16.01,-35.68 35.68,-35.68 19.68,0 35.69,16.01 35.69,35.68 0,19.68 -16.01,35.68 -35.69,35.68zm70.82 -79.05l-9.33 0c-4.55,0 -8.24,3.69 -8.24,8.24 0,4.55 3.69,8.23 8.24,8.23l9.33 0 0 9.33c0,5.15 -4.19,9.34 -9.33,9.34l-9.99 0c-3.96,-24.86 -25.54,-43.92 -51.5,-43.92 -25.95,0 -47.53,19.06 -51.49,43.92l-213.21 0c-3.96,-24.86 -25.54,-43.92 -51.5,-43.92 -25.95,0 -47.53,19.06 -51.49,43.92l-27.56 0c-5.14,0 -9.33,-4.19 -9.33,-9.34l0 -9.33 26.9 0c4.55,0 8.23,-3.68 8.23,-8.23 0,-4.55 -3.68,-8.24 -8.23,-8.24l-26.9 0 0 -193.78c0,-5.15 4.19,-9.33 9.33,-9.33l325.69 0c7.05,0 13.5,4.13 16.45,10.52l7.81 16.93 -77.66 0c-9.39,0 -17.02,7.63 -17.02,17.01l0 35.14c0,19.07 15.51,34.58 34.58,34.58l103.66 0 51.13 22.73 -1.29 0.79c-7.66,4.64 -12.41,13.09 -12.41,22.05l0 16.47c0,4.54 3.68,8.23 8.23,8.23l26.9 0 0 18.66zm-175.67 -159.19l0 53.79 -0.55 0c-9.99,0 -18.11,-8.12 -18.11,-18.11l0 -35.14c0,-0.3 0.24,-0.55 0.55,-0.55l18.11 0.01zm175.67 124.06l-18.66 0 0 -8.23c0,-3.24 1.72,-6.29 4.48,-7.98l9.46 -5.74c2.98,3.27 4.72,7.59 4.72,12.17l0 9.78z"/>
  <path class="fil0" d="M361.66 331.58l-193.23 0c-4.55,0 -8.24,3.69 -8.24,8.24 0,4.55 3.69,8.23 8.24,8.23l193.23 0c4.55,0 8.24,-3.68 8.24,-8.23 0,-4.55 -3.69,-8.24 -8.24,-8.24z"/>
  <g id="_1563889772048">
  </g>
  <g id="_1563889772592">
  </g>
  <g id="_1563889772304">
  </g>
  <g id="_1563889772208">
  </g>
  <g id="_1563889772144">
  </g>
  <g id="_1563889770928">
  </g>
  <g id="_1563889770352">
  </g>
  <g id="_1563889769552">
  </g>
  <g id="_1563889769776">
  </g>
  <g id="_1563889768848">
  </g>
  <g id="_1563889769168">
  </g>
  <g id="_1563889769680">
  </g>
  <g id="_1563889767152">
  </g>
  <g id="_1563889767184">
  </g>
  <g id="_1563889767856">
  </g>
  <path class="fil1" d="M123.26 182.69l-9.15 -21.92 -11.36 4.75 9.19 22.03c1.01,2.41 2.25,4.03 3.73,4.86 1.46,0.82 3.15,0.84 5.04,0.05 1.87,-0.78 3.03,-1.98 3.47,-3.6 0.43,-1.63 0.12,-3.68 -0.92,-6.17zm-17.38 10.24l-10.2 -24.46 -15.89 6.62 10.21 24.47c1.1,2.65 2.65,4.41 4.68,5.29 1.99,0.86 4.27,0.78 6.8,-0.28 2.5,-1.04 4.12,-2.58 4.91,-4.61 0.76,-2.04 0.6,-4.38 -0.51,-7.03zm-36.19 -22.47l48.24 -20.13 12.38 29.69c2.05,4.91 2.6,9.06 1.63,12.43 -0.96,3.38 -3.41,5.87 -7.31,7.5 -1.97,0.82 -3.87,1.16 -5.73,1.01 -1.86,-0.16 -3.58,-0.8 -5.16,-1.91 -0.38,3.31 -1.37,6.11 -2.99,8.37 -1.59,2.28 -3.77,3.98 -6.47,5.1 -4.5,1.88 -8.67,1.85 -12.51,-0.06 -3.85,-1.94 -6.87,-5.55 -9.08,-10.85l-13 -31.15zm61.81 51.35l20.41 18.95c2.07,1.92 4.06,2.95 5.99,3.05 1.93,0.11 3.68,-0.67 5.25,-2.35 1.55,-1.68 2.2,-3.48 1.92,-5.37 -0.26,-1.9 -1.43,-3.81 -3.5,-5.73l-20.41 -18.95 -9.66 10.4zm-5.22 5.62l-15.56 16.75 -5.98 -5.56 35.56 -38.29 26.4 24.5c3.92,3.65 6.11,7.45 6.58,11.41 0.48,3.95 -0.86,7.6 -3.98,10.96 -2.52,2.71 -5.59,4.27 -9.2,4.62 -3.61,0.37 -7.03,-0.52 -10.27,-2.7l-4.95 26.78 -6.52 -6.06 4.66 -26.87 -16.74 -15.54zm52 43.63l18.86 7.99 -1.54 -22.46 -17.32 14.47zm-25.37 11.22l44.97 -37.85 4.75 2.01 4.31 58.72 -8.08 -3.42 -1.08 -14.92 -25.47 -10.78 -11.42 9.62 -7.98 -3.38zm71.44 26.91l7.74 -51.82 4.25 0.64 27.46 41.33 5.45 -36.41 7.95 1.19 -7.75 51.82 -4.24 -0.64 -27.49 -41.2 -5.42 36.28 -7.95 -1.19zm89.63 -45.13c8.53,-0.77 15.61,1.04 21.29,5.43 5.65,4.4 8.83,10.48 9.54,18.26 0.72,7.86 -1.28,14.37 -5.96,19.55 -4.68,5.16 -11.39,8.15 -20.13,8.94l-23.1 2.1 -4.75 -52.18 23.11 -2.1zm0.8 7.5l-15.09 1.37 3.38 37.16 15.1 -1.37c6.19,-0.56 10.92,-2.67 14.16,-6.31 3.24,-3.64 4.61,-8.33 4.09,-14.02 -0.5,-5.51 -2.75,-9.82 -6.73,-12.95 -3.99,-3.13 -8.94,-4.42 -14.91,-3.88z"/>
 </g>
</svg>
