<?xml version="1.0" encoding="UTF-8"?>
<!DOCTYPE svg PUBLIC "-//W3C//DTD SVG 1.1//EN" "http://www.w3.org/Graphics/SVG/1.1/DTD/svg11.dtd">
<!-- Creator: CorelDRAW 2017 -->
<svg xmlns="http://www.w3.org/2000/svg" xml:space="preserve" width="21.6746mm" height="21.6746mm" version="1.1" style="shape-rendering:geometricPrecision; text-rendering:geometricPrecision; image-rendering:optimizeQuality; fill-rule:evenodd; clip-rule:evenodd"
viewBox="0 0 2167.46 2167.46"
 xmlns:xlink="http://www.w3.org/1999/xlink">
 <defs>
  <style type="text/css">
   <![CDATA[
    .str1 {stroke:#2B2A29;stroke-width:20;stroke-miterlimit:22.9256}
    .str0 {stroke:#2B2A29;stroke-width:7.62;stroke-miterlimit:22.9256}
    .fil5 {fill:#2B2A29}
    .fil4 {fill:#00A0E3}
    .fil2 {fill:black}
    .fil3 {fill:black}
    .fil0 {fill:#4DBBEB}
    .fil1 {fill:#BEE7F4}
   ]]>
  </style>
 </defs>
 <g id="Слой_x0020_1">
  <metadata id="CorelCorpID_0Corel-Layer"/>
  <g id="_1421845768400">
   <polygon class="fil0" points="623.32,732.58 1169.4,1321.01 1708.69,732.58 1546.1,455.72 1166.01,455.72 786.13,455.72 "/>
   <g>
    <polygon class="fil1" points="1546.1,455.72 1708.69,732.58 1426.49,732.58 1425.87,731.9 "/>
    <polygon class="fil1" points="908.75,732.58 908.59,732.19 1166.01,455.72 1425.87,731.9 1425.57,732.58 1169.4,1321.01 "/>
    <polygon class="fil1" points="786.13,455.72 908.59,732.19 908.24,732.58 623.32,732.58 "/>
   </g>
   <path class="fil2" d="M1730.86 747.6c0.18,-0.23 0.34,-0.46 0.51,-0.7 0.31,-0.45 0.59,-0.91 0.86,-1.37 0.12,-0.21 0.26,-0.42 0.38,-0.63 0.37,-0.65 0.69,-1.32 1,-1.99 0.11,-0.25 0.21,-0.52 0.32,-0.78 0.19,-0.46 0.36,-0.91 0.52,-1.37 0.11,-0.32 0.2,-0.63 0.3,-0.95 0.13,-0.45 0.25,-0.91 0.36,-1.37 0.07,-0.3 0.14,-0.59 0.21,-0.89 0.15,-0.74 0.27,-1.49 0.36,-2.25 0,-0.09 0,-0.17 0.02,-0.26 0.07,-0.72 0.1,-1.44 0.11,-2.17 0,-0.09 0.01,-0.18 0.01,-0.28 0,-0.15 -0.02,-0.28 -0.02,-0.42 -0.01,-0.6 -0.03,-1.19 -0.09,-1.79 -0.02,-0.24 -0.04,-0.47 -0.07,-0.71 -0.08,-0.72 -0.19,-1.45 -0.33,-2.16 -0.04,-0.2 -0.09,-0.39 -0.14,-0.59 -0.14,-0.59 -0.29,-1.18 -0.47,-1.78 -0.1,-0.32 -0.21,-0.63 -0.33,-0.95 -0.14,-0.41 -0.3,-0.82 -0.47,-1.23 -0.14,-0.33 -0.28,-0.66 -0.42,-0.99 -0.18,-0.39 -0.38,-0.77 -0.58,-1.15 -0.16,-0.31 -0.32,-0.62 -0.49,-0.92 -0.04,-0.05 -0.06,-0.11 -0.09,-0.17l-162.59 -276.85c-0.08,-0.14 -0.19,-0.25 -0.27,-0.39 -0.45,-0.75 -0.95,-1.47 -1.48,-2.16 -0.14,-0.19 -0.27,-0.37 -0.41,-0.55 -0.67,-0.85 -1.39,-1.66 -2.18,-2.42 -0.01,-0.02 -0.03,-0.02 -0.04,-0.04 -0.74,-0.72 -1.55,-1.39 -2.38,-2.03 -0.21,-0.16 -0.42,-0.3 -0.63,-0.46 -0.67,-0.48 -1.38,-0.94 -2.11,-1.37 -0.24,-0.13 -0.47,-0.28 -0.7,-0.41 -0.92,-0.5 -1.88,-0.98 -2.88,-1.39 -0.02,0 -0.02,-0.01 -0.04,-0.01 0,0 -0.01,0 -0.01,-0.01 -1.01,-0.41 -2.03,-0.73 -3.06,-1.02 -0.29,-0.08 -0.58,-0.13 -0.87,-0.21 -0.8,-0.19 -1.62,-0.35 -2.43,-0.47 -0.29,-0.04 -0.58,-0.09 -0.86,-0.12 -1.09,-0.13 -2.18,-0.21 -3.26,-0.21 0,0 0,0 -0.01,0l-0.01 0.01c-0.05,0 -0.09,0 -0.14,0l-379.95 0 -0.07 0 -379.77 0c-1.12,0 -2.24,0.08 -3.38,0.21 -0.26,0.04 -0.52,0.08 -0.78,0.12 -0.82,0.12 -1.64,0.28 -2.46,0.48 -0.3,0.08 -0.6,0.14 -0.9,0.22 -0.88,0.25 -1.77,0.54 -2.64,0.88 -0.14,0.05 -0.29,0.1 -0.44,0.15 -0.02,0.02 -0.05,0.02 -0.07,0.03 -0.98,0.4 -1.92,0.87 -2.82,1.36 -0.23,0.12 -0.44,0.26 -0.67,0.39 -0.73,0.43 -1.43,0.89 -2.11,1.38 -0.22,0.16 -0.44,0.32 -0.66,0.48 -0.75,0.58 -1.47,1.19 -2.15,1.83 -0.09,0.09 -0.18,0.16 -0.27,0.25 -0.77,0.76 -1.5,1.57 -2.17,2.4 -0.13,0.16 -0.24,0.33 -0.36,0.5 -0.53,0.7 -1.03,1.43 -1.49,2.17 -0.08,0.14 -0.18,0.25 -0.26,0.39l-162.82 276.86c-0.03,0.05 -0.06,0.11 -0.09,0.16 -0.18,0.31 -0.34,0.63 -0.51,0.95 -0.19,0.38 -0.39,0.75 -0.56,1.13 -0.15,0.33 -0.3,0.67 -0.44,1.01 -0.17,0.4 -0.32,0.8 -0.46,1.21 -0.12,0.32 -0.23,0.64 -0.34,0.96 -0.17,0.57 -0.32,1.14 -0.45,1.71 -0.05,0.19 -0.1,0.36 -0.14,0.55 -0.16,0.75 -0.27,1.51 -0.36,2.27 -0.03,0.24 -0.04,0.46 -0.06,0.7 -0.06,0.6 -0.09,1.19 -0.1,1.79 0,0.14 -0.02,0.27 -0.02,0.41 0,0.11 0.01,0.21 0.02,0.31 0.01,0.68 0.04,1.36 0.11,2.05 0.01,0.13 0.01,0.26 0.02,0.39 0.09,0.75 0.21,1.51 0.36,2.26 0.06,0.29 0.14,0.58 0.21,0.87 0.11,0.46 0.23,0.93 0.37,1.38 0.09,0.32 0.19,0.64 0.3,0.96 0.15,0.44 0.33,0.88 0.51,1.33 0.11,0.28 0.21,0.56 0.33,0.83 0.31,0.68 0.64,1.35 1.01,2 0.1,0.17 0.2,0.33 0.3,0.5 0.3,0.51 0.61,1.01 0.95,1.5 0.16,0.23 0.32,0.45 0.48,0.67 0.3,0.41 0.62,0.83 0.96,1.23 0.18,0.22 0.37,0.44 0.56,0.66 0.14,0.15 0.26,0.32 0.4,0.47l546.08 588.43c0.67,0.72 1.38,1.41 2.13,2.04 0.1,0.09 0.22,0.17 0.33,0.26 0.78,0.65 1.6,1.26 2.45,1.82 0.28,0.18 0.56,0.35 0.84,0.53 0.79,0.48 1.6,0.92 2.44,1.32 0.23,0.11 0.45,0.23 0.68,0.33 1.06,0.47 2.14,0.87 3.25,1.21 0.26,0.08 0.53,0.13 0.8,0.21 0.89,0.24 1.8,0.43 2.72,0.59 0.33,0.05 0.67,0.11 1.01,0.15 1.18,0.15 2.37,0.25 3.58,0.25 0.04,0 0.06,0 0.09,0 1.21,0 2.4,-0.11 3.59,-0.27 0.34,-0.04 0.68,-0.1 1.01,-0.16 0.92,-0.15 1.83,-0.36 2.72,-0.6 0.27,-0.07 0.54,-0.12 0.81,-0.21 1.11,-0.34 2.19,-0.75 3.25,-1.22 0.23,-0.11 0.45,-0.23 0.68,-0.34 0.83,-0.41 1.65,-0.85 2.44,-1.34 0.28,-0.17 0.56,-0.35 0.85,-0.53 0.83,-0.56 1.65,-1.17 2.42,-1.82 0.12,-0.1 0.24,-0.19 0.36,-0.28 0.74,-0.65 1.46,-1.34 2.13,-2.07l539.31 -588.42c0.11,-0.13 0.21,-0.26 0.33,-0.39 0.19,-0.21 0.37,-0.43 0.56,-0.65 0.32,-0.41 0.62,-0.81 0.92,-1.22zm-948.16 -233.03l84.99 191.89 -197.83 0 112.84 -191.89zm274.77 191.89l-88.49 0 197.14 -211.72 199.21 211.72 -90.78 0c-14.99,0 -27.14,11.69 -27.14,26.11 0,14.43 12.15,26.12 27.14,26.12l110.24 0.01 -215.6 495.23 -219.36 -495.23 107.65 0c14.98,0 27.13,-11.7 27.13,-26.12 0,-14.42 -12.16,-26.12 -27.14,-26.12zm169.72 -224.62l278.12 0 -87.98 202.08 -190.14 -202.08zm-310.36 202.36l-89.63 -202.36 278.05 0 -188.42 202.36zm-26.01 74.5l188.92 426.49 -395.79 -426.49 206.87 0zm552.8 0l204.95 0 -390.39 425.96 185.44 -425.96zm22.74 -52.24l83.37 -191.5 112.46 191.5 -195.83 0z"/>
   <path class="fil2" d="M1166.01 272.89c14.98,0 27.13,-11.7 27.13,-26.12l0 -104.48c0,-14.42 -12.15,-26.11 -27.13,-26.11 -14.99,0 -27.14,11.69 -27.14,26.11l0 104.48c0,14.42 12.15,26.12 27.14,26.12z"/>
   <path class="fil2" d="M925.43 315.83c5.03,8.38 14.15,13.06 23.53,13.06 4.6,0 9.27,-1.13 13.54,-3.51 12.98,-7.21 17.43,-23.18 9.93,-35.68l-54.26 -90.49c-7.5,-12.5 -24.09,-16.79 -37.07,-9.57 -12.98,7.22 -17.43,23.19 -9.93,35.68l54.26 90.51z"/>
   <path class="fil2" d="M1369.52 325.39c4.28,2.37 8.94,3.5 13.54,3.5 9.38,0 18.5,-4.68 23.53,-13.06l54.26 -90.5c7.5,-12.5 3.04,-28.47 -9.93,-35.68 -12.99,-7.22 -29.57,-2.93 -37.07,9.56l-54.26 90.5c-7.5,12.49 -3.05,28.47 9.93,35.68z"/>
   <path class="fil2" d="M853.96 144.41c12.97,-7.2 17.43,-23.16 9.94,-35.68 -7.49,-12.48 -24.1,-16.77 -37.07,-9.56 -12.97,7.23 -17.42,23.19 -9.93,35.68 7.49,12.51 24.09,16.79 37.06,9.56z"/>
   <path class="fil2" d="M1166.01 63.94c14.98,0 27.13,-11.7 27.13,-26.12 0,-14.42 -12.15,-26.12 -27.13,-26.12 -14.98,0 -27.14,11.7 -27.14,26.12 0,14.42 12.16,26.12 27.14,26.12z"/>
   <path class="fil2" d="M1166.01 758.7c14.98,0 27.13,-11.7 27.13,-26.12 0,-14.42 -12.15,-26.12 -27.13,-26.12 -14.98,0 -27.14,11.7 -27.14,26.12 0,14.42 12.16,26.12 27.14,26.12z"/>
   <path class="fil2" d="M1478.05 144.41c12.97,7.24 29.58,2.95 37.07,-9.56 7.49,-12.48 3.04,-28.44 -9.94,-35.68 -12.96,-7.21 -29.57,-2.93 -37.06,9.56 -7.49,12.51 -3.04,28.47 9.93,35.68z"/>
   <g>
   </g>
   <g>
   </g>
   <g>
   </g>
   <g>
   </g>
   <g>
   </g>
   <g>
   </g>
   <g>
   </g>
   <g>
   </g>
   <g>
   </g>
   <g>
   </g>
   <g>
   </g>
   <g>
   </g>
   <g>
   </g>
   <g>
   </g>
   <g>
   </g>
  </g>
  <path class="fil3" d="M1834.26 1430.55c34.99,49.22 27.03,115.73 -18.68,156l-303.12 267.44c-5.14,4.54 -11.87,7.06 -18.84,7.06l-548.59 -0.01 -161.07 110.76 4.6 4.43c10.88,10.48 10.88,27.46 0,37.94l-139.38 134.16c-10.88,10.47 -28.52,10.47 -39.41,0l-418.13 -402.48c-10.88,-10.48 -10.88,-27.46 0,-37.94l139.38 -134.16c10.88,-10.48 28.52,-10.48 39.41,0l36.05 34.69 119.67 -115.19c5.23,-5.03 12.32,-7.86 19.71,-7.86l413.61 0 167.25 -53.66c37.29,-9.01 69.42,-27.05 111.89,-30.19 68.6,3.14 84.93,12.58 125.97,30.19 3.88,4.84 7.33,10 10.31,15.41 28.91,52.57 8.07,117.75 -46.55,145.58l98.93 0 188.16 -160.99c34.78,-23.9 57.64,-36.47 109.91,-36.47 39.2,0 68.6,15.71 108.92,35.29zm-56.31 116.55l-295.18 260.28 -546.66 -0.01c-5.81,0 -11.47,1.75 -16.2,4.99l-175.92 120.97 -298.1 -286.95 111.51 -107.33 406.59 0c2.99,0 5.97,-0.46 8.81,-1.37l285.16 -91.49c29.48,-9.52 61.4,5.76 71.29,34.14 9.9,28.39 -5.99,59.11 -35.47,68.63 -1.06,0.34 -2.13,0.65 -3.21,0.94l-163.07 42.82 -79.89 0 0 53.66 390.25 0c6.82,0 13.41,-2.4 18.52,-6.76l223.42 -191.15c12.6,-10.79 28.88,-16.75 45.74,-16.74l5.77 0c38.06,-0.14 69.02,29.45 69.15,66.08 0.07,18.76 -8.11,36.67 -22.51,49.29z"/>
  <polygon class="fil4 str0" points="629.48,2091.43 249.27,1727.79 352.54,1628.39 729.44,1995.2 "/>
  <rect class="fil5 str1" transform="matrix(-0.545643 -0.525225 0.545643 -0.525225 388.148 1790.99)" width="122.77" height="55.03"/>
 </g>
</svg>
