<?xml version="1.0" encoding="UTF-8"?>
<!DOCTYPE svg PUBLIC "-//W3C//DTD SVG 1.1//EN" "http://www.w3.org/Graphics/SVG/1.1/DTD/svg11.dtd">
<!-- Creator: CorelDRAW 2017 -->
<svg xmlns="http://www.w3.org/2000/svg" xml:space="preserve" width="512px" height="512px" version="1.1" style="shape-rendering:geometricPrecision; text-rendering:geometricPrecision; image-rendering:optimizeQuality; fill-rule:evenodd; clip-rule:evenodd"
viewBox="0 0 512 512"
 xmlns:xlink="http://www.w3.org/1999/xlink">
 <defs>
  <style type="text/css">
   <![CDATA[
    .str0 {stroke:#2B2A29;stroke-width:12;stroke-miterlimit:22.9256}
    .str1 {stroke:#2B2A29;stroke-width:0.9;stroke-miterlimit:22.9256}
    .fil0 {fill:none}
    .fil1 {fill:#2B2A29;fill-rule:nonzero}
   ]]>
  </style>
 </defs>
 <g id="Слой_x0020_1">
  <metadata id="CorelCorpID_0Corel-Layer"/>
  <path class="fil0 str0" d="M68.82 234.26l230.05 -92.94 73.92 182.96 -230.05 92.95c-50.52,20.41 -108.03,-4 -128.44,-54.52 -20.41,-50.53 4,-108.03 54.52,-128.45zm178.86 140.57c-50.53,20.41 -108.03,-4 -128.44,-54.52 -20.42,-50.53 3.99,-108.03 54.51,-128.44"/>
  <polygon class="fil1 str1" points="355.12,291.44 343.96,263.83 354.68,221.21 317.39,198.06 306.8,171.84 307.83,171.43 358.72,204.54 372.5,145.3 392.7,137.14 373.21,213.72 447.88,260.01 427.6,268.2 369.32,230.27 "/>
  <polygon class="fil1 str1" points="346.76,300.86 333.29,306.3 339.3,282.39 "/>
  <polygon class="fil1 str1" points="301.15,187.98 287.63,179.59 296.34,176.07 "/>
  <path class="fil1 str1" d="M151.7 251.74l-5.98 -14.81 16.19 -6.55 5.99 14.82 -16.2 6.54zm-16.44 -10.59l5.98 14.82 -14.63 5.91 5.41 13.39 -16.59 6.71 -5.41 -13.4 -12.71 5.14 -5.99 -14.82 43.94 -17.75zm-48.41 36.79l-17.77 7.18 -5.99 -14.81 17.77 -7.18 5.99 14.81zm67.67 53.03l-16.59 6.71 -18.27 -45.24 16.59 -6.71 18.27 45.24zm69.92 -64.27l5.99 14.82 -6.83 2.76 6.53 16.15 -16.54 6.68 -18.27 -45.24 16.53 -6.68 5.76 14.27 6.83 -2.76zm29.03 71.85l-23.36 9.44 -12.29 -30.42 16.53 -6.68 6.31 15.6 6.82 -2.76 5.99 14.82zm-111.31 9.59l16.59 -6.71 12.29 30.43 -16.59 6.7 -12.29 -30.42zm60.89 -134.38l5.99 14.82 -6.83 2.76 5.41 13.39 -16.53 6.68 -11.4 -28.21 23.36 -9.44zm56.36 -22.77l10.44 -4.22 5.99 14.82 -10.44 4.22 -5.99 -14.82zm21.39 52.94l5.67 -2.29 5.99 14.81 -5.67 2.29 -5.99 -14.81zm23.05 57.03l13.34 -5.39 5.99 14.82 -13.35 5.39 -5.98 -14.82zm-10.46 4.23l5.98 14.82 -12.43 5.02 -5.98 -14.82 12.43 -5.02zm-23.05 -57.04l5.99 14.82 -12.43 5.02 -5.99 -14.81 12.43 -5.03zm-27.83 -33.1l-5.99 -14.81 12.43 -5.03 5.99 14.82 -12.43 5.02zm-23.01 9.3l-5.99 -14.82 12.55 -5.07 5.99 14.82 -12.55 5.07zm21.39 52.94l-5.99 -14.82 12.55 -5.07 5.99 14.82 -12.55 5.07zm23.04 57.04l-5.99 -14.82 12.56 -5.07 5.98 14.82 -12.55 5.07z"/>
  <polygon class="fil1 str1" points="506.95,108.22 465.66,124.9 510.09,234.87 493.5,241.58 449.07,131.6 408.13,148.14 402.14,133.32 500.96,93.4 "/>
 </g>
</svg>
